<mxfile host="app.diagrams.net" modified="2023-09-22T08:04:05.235Z" agent="Mozilla/5.0 (Windows NT 10.0; Win64; x64; rv:109.0) Gecko/20100101 Firefox/116.0" version="21.6.8" etag="fV3Lxd5vXdgEhMZoStk1" type="github">
  <diagram name="Page-1" id="GkSh0j7nAGHl28CV47Xi">
    <mxGraphModel>
      <root>
        <mxCell id="0" />
        <mxCell id="1" parent="0" />
      </root>
    </mxGraphModel>
  </diagram>
</mxfile>
